<mxfile host="app.diagrams.net" agent="Mozilla/5.0 (Windows NT 10.0; Win64; x64) AppleWebKit/537.36 (KHTML, like Gecko) Chrome/131.0.0.0 Safari/537.36" version="25.0.1">
  <diagram name="Página-1" id="hDy8dUDQK2IC1Iuztjzt">
    <mxGraphModel dx="1687" dy="908" grid="1" gridSize="10" guides="1" tooltips="1" connect="1" arrows="1" fold="1" page="1" pageScale="1" pageWidth="827" pageHeight="1169" math="0" shadow="0">
      <root>
        <mxCell id="0" />
        <mxCell id="1" parent="0" />
        <mxCell id="LZC1NuD3U-qBjLvTTaPn-1" value="" style="shape=folder;fontStyle=1;spacingTop=10;tabWidth=160;tabHeight=20;tabPosition=left;html=1;whiteSpace=wrap;" vertex="1" parent="1">
          <mxGeometry x="120" y="390" width="460" height="210" as="geometry" />
        </mxCell>
        <mxCell id="LZC1NuD3U-qBjLvTTaPn-2" value="Interfaz&amp;nbsp;&lt;div&gt;Administrador&lt;/div&gt;" style="html=1;dropTarget=0;whiteSpace=wrap;" vertex="1" parent="1">
          <mxGeometry x="150" y="460" width="180" height="90" as="geometry" />
        </mxCell>
        <mxCell id="LZC1NuD3U-qBjLvTTaPn-3" value="" style="shape=module;jettyWidth=8;jettyHeight=4;" vertex="1" parent="LZC1NuD3U-qBjLvTTaPn-2">
          <mxGeometry x="1" width="20" height="20" relative="1" as="geometry">
            <mxPoint x="-27" y="7" as="offset" />
          </mxGeometry>
        </mxCell>
        <mxCell id="LZC1NuD3U-qBjLvTTaPn-4" value="Interfaz&amp;nbsp;&lt;div&gt;Usuario&lt;/div&gt;" style="html=1;dropTarget=0;whiteSpace=wrap;" vertex="1" parent="1">
          <mxGeometry x="370" y="460" width="180" height="90" as="geometry" />
        </mxCell>
        <mxCell id="LZC1NuD3U-qBjLvTTaPn-5" value="" style="shape=module;jettyWidth=8;jettyHeight=4;" vertex="1" parent="LZC1NuD3U-qBjLvTTaPn-4">
          <mxGeometry x="1" width="20" height="20" relative="1" as="geometry">
            <mxPoint x="-27" y="7" as="offset" />
          </mxGeometry>
        </mxCell>
        <mxCell id="LZC1NuD3U-qBjLvTTaPn-6" value="Vista" style="text;strokeColor=none;fillColor=none;align=left;verticalAlign=top;spacingLeft=4;spacingRight=4;overflow=hidden;rotatable=0;points=[[0,0.5],[1,0.5]];portConstraint=eastwest;whiteSpace=wrap;html=1;" vertex="1" parent="1">
          <mxGeometry x="120" y="390" width="100" height="26" as="geometry" />
        </mxCell>
        <mxCell id="LZC1NuD3U-qBjLvTTaPn-7" value="" style="shape=folder;fontStyle=1;spacingTop=10;tabWidth=160;tabHeight=20;tabPosition=left;html=1;whiteSpace=wrap;" vertex="1" parent="1">
          <mxGeometry x="670" y="390" width="540" height="390" as="geometry" />
        </mxCell>
        <mxCell id="LZC1NuD3U-qBjLvTTaPn-8" value="Controlador" style="text;strokeColor=none;fillColor=none;align=left;verticalAlign=top;spacingLeft=4;spacingRight=4;overflow=hidden;rotatable=0;points=[[0,0.5],[1,0.5]];portConstraint=eastwest;whiteSpace=wrap;html=1;" vertex="1" parent="1">
          <mxGeometry x="670" y="386" width="100" height="26" as="geometry" />
        </mxCell>
        <mxCell id="LZC1NuD3U-qBjLvTTaPn-9" value="Registro de huella digital" style="html=1;dropTarget=0;whiteSpace=wrap;" vertex="1" parent="1">
          <mxGeometry x="720" y="440" width="180" height="90" as="geometry" />
        </mxCell>
        <mxCell id="LZC1NuD3U-qBjLvTTaPn-10" value="" style="shape=module;jettyWidth=8;jettyHeight=4;" vertex="1" parent="LZC1NuD3U-qBjLvTTaPn-9">
          <mxGeometry x="1" width="20" height="20" relative="1" as="geometry">
            <mxPoint x="-27" y="7" as="offset" />
          </mxGeometry>
        </mxCell>
        <mxCell id="LZC1NuD3U-qBjLvTTaPn-11" value="Registro de información de estudiante" style="html=1;dropTarget=0;whiteSpace=wrap;" vertex="1" parent="1">
          <mxGeometry x="950" y="442" width="180" height="90" as="geometry" />
        </mxCell>
        <mxCell id="LZC1NuD3U-qBjLvTTaPn-12" value="" style="shape=module;jettyWidth=8;jettyHeight=4;" vertex="1" parent="LZC1NuD3U-qBjLvTTaPn-11">
          <mxGeometry x="1" width="20" height="20" relative="1" as="geometry">
            <mxPoint x="-27" y="7" as="offset" />
          </mxGeometry>
        </mxCell>
        <mxCell id="LZC1NuD3U-qBjLvTTaPn-13" value="Edición de información de estudiante" style="html=1;dropTarget=0;whiteSpace=wrap;" vertex="1" parent="1">
          <mxGeometry x="721" y="550" width="180" height="90" as="geometry" />
        </mxCell>
        <mxCell id="LZC1NuD3U-qBjLvTTaPn-14" value="" style="shape=module;jettyWidth=8;jettyHeight=4;" vertex="1" parent="LZC1NuD3U-qBjLvTTaPn-13">
          <mxGeometry x="1" width="20" height="20" relative="1" as="geometry">
            <mxPoint x="-27" y="7" as="offset" />
          </mxGeometry>
        </mxCell>
        <mxCell id="LZC1NuD3U-qBjLvTTaPn-15" value="Eliminación de estudiantes" style="html=1;dropTarget=0;whiteSpace=wrap;" vertex="1" parent="1">
          <mxGeometry x="950" y="554" width="180" height="90" as="geometry" />
        </mxCell>
        <mxCell id="LZC1NuD3U-qBjLvTTaPn-16" value="" style="shape=module;jettyWidth=8;jettyHeight=4;" vertex="1" parent="LZC1NuD3U-qBjLvTTaPn-15">
          <mxGeometry x="1" width="20" height="20" relative="1" as="geometry">
            <mxPoint x="-27" y="7" as="offset" />
          </mxGeometry>
        </mxCell>
        <mxCell id="LZC1NuD3U-qBjLvTTaPn-17" value="Búsqueda de estudiantes" style="html=1;dropTarget=0;whiteSpace=wrap;" vertex="1" parent="1">
          <mxGeometry x="830" y="670" width="180" height="90" as="geometry" />
        </mxCell>
        <mxCell id="LZC1NuD3U-qBjLvTTaPn-18" value="" style="shape=module;jettyWidth=8;jettyHeight=4;" vertex="1" parent="LZC1NuD3U-qBjLvTTaPn-17">
          <mxGeometry x="1" width="20" height="20" relative="1" as="geometry">
            <mxPoint x="-27" y="7" as="offset" />
          </mxGeometry>
        </mxCell>
        <mxCell id="LZC1NuD3U-qBjLvTTaPn-19" value="" style="shape=folder;fontStyle=1;spacingTop=10;tabWidth=160;tabHeight=20;tabPosition=left;html=1;whiteSpace=wrap;" vertex="1" parent="1">
          <mxGeometry x="120" y="679" width="430" height="246" as="geometry" />
        </mxCell>
        <mxCell id="LZC1NuD3U-qBjLvTTaPn-20" value="&lt;br&gt;&lt;div&gt;&lt;span style=&quot;color: rgb(31, 31, 31); font-family: &amp;quot;Google Sans&amp;quot;, Arial, sans-serif-medium, sans-serif; text-align: start; background-color: rgb(255, 255, 255);&quot;&gt;&lt;font style=&quot;font-size: 13px;&quot;&gt;PostgreSQL&lt;/font&gt;&lt;/span&gt;&lt;/div&gt;" style="html=1;dropTarget=0;whiteSpace=wrap;" vertex="1" parent="1">
          <mxGeometry x="245" y="770" width="180" height="90" as="geometry" />
        </mxCell>
        <mxCell id="LZC1NuD3U-qBjLvTTaPn-21" value="" style="shape=module;jettyWidth=8;jettyHeight=4;" vertex="1" parent="LZC1NuD3U-qBjLvTTaPn-20">
          <mxGeometry x="1" width="20" height="20" relative="1" as="geometry">
            <mxPoint x="-27" y="7" as="offset" />
          </mxGeometry>
        </mxCell>
        <mxCell id="LZC1NuD3U-qBjLvTTaPn-24" value="Controlador" style="text;strokeColor=none;fillColor=none;align=left;verticalAlign=top;spacingLeft=4;spacingRight=4;overflow=hidden;rotatable=0;points=[[0,0.5],[1,0.5]];portConstraint=eastwest;whiteSpace=wrap;html=1;" vertex="1" parent="1">
          <mxGeometry x="120" y="679" width="100" height="26" as="geometry" />
        </mxCell>
      </root>
    </mxGraphModel>
  </diagram>
</mxfile>
